<svg xmlns="http://www.w3.org/2000/svg" width="161" height="33" viewBox="0 0 161 33" fill="none">
  <path d="M0 32.3062V29.9212C0.820861 29.8922 1.45117 29.7622 1.89091 29.5309C2.33066 29.2707 2.63848 28.8371 2.81438 28.23C2.99028 27.594 3.07823 26.7267 3.07823 25.6281V8.32589C3.07823 7.60316 3.09289 6.90933 3.1222 6.24442C3.18084 5.5795 3.22481 5.05913 3.25413 4.68331C2.75575 4.71222 2.18408 4.74113 1.53912 4.77004C0.894153 4.77004 0.381114 4.78449 0 4.81341V1.95138H21.4597L21.6795 10.1038H19.2609C19.2609 8.45598 18.9824 7.22733 18.4254 6.41787C17.8684 5.5795 17.1648 5.01577 16.3146 4.72668C15.4644 4.43758 14.5996 4.30749 13.7201 4.3364L11.5653 4.37976C10.8031 4.40867 10.2021 4.55322 9.76239 4.81341C9.35196 5.07359 9.05879 5.52168 8.88289 6.15769C8.70699 6.76478 8.61904 7.60315 8.61904 8.6728V16.2181H14.1599L13.94 12.4888H16.8423V22.5493H14.4677C14.4677 21.3062 14.2771 20.41 13.896 19.8607C13.5149 19.3114 12.9725 18.979 12.2689 18.8633C11.5947 18.7188 10.7885 18.6754 9.85034 18.7332L8.61904 18.7766V25.8449C8.61904 26.6255 8.60438 27.3482 8.57507 28.0131C8.54575 28.6781 8.50178 29.1984 8.44314 29.5742C8.82426 29.5453 9.26401 29.5309 9.76239 29.5309C10.2901 29.502 10.8031 29.4875 11.3015 29.4875C11.8292 29.4586 12.2396 29.4442 12.5328 29.4442V32.3062H0Z" fill="#151515"/>
  <path d="M23.9525 30.0079C24.8027 30.0079 25.4036 29.8344 25.7554 29.4875C26.1072 29.1117 26.3271 28.5913 26.4151 27.9264C26.503 27.2615 26.547 26.5099 26.547 25.6715V17.5624C26.547 17.071 26.5616 16.5361 26.591 15.958C26.6203 15.3509 26.6642 14.7293 26.7229 14.0933C26.2245 14.1222 25.6821 14.1511 25.0958 14.18C24.5095 14.2089 24.0258 14.2378 23.6447 14.2668V11.4481C24.9639 11.4481 26.0486 11.3903 26.8988 11.2746C27.7783 11.1301 28.4526 10.9566 28.9216 10.7543C29.42 10.5519 29.7718 10.364 29.977 10.1905H31.9559V26.1051C31.9559 26.5677 31.9412 27.1314 31.9119 27.7963C31.9119 28.4323 31.8679 29.0539 31.78 29.661C32.249 29.6032 32.7474 29.5742 33.2751 29.5742C33.8321 29.5453 34.2865 29.5309 34.6383 29.5309V32.3062H23.9525V30.0079ZM29.0096 6.46124C28.1594 6.46124 27.4411 6.15769 26.8548 5.55059C26.2685 4.91459 25.9753 4.14849 25.9753 3.2523C25.9753 2.35611 26.2685 1.59001 26.8548 0.954008C27.4705 0.318003 28.1887 0 29.0096 0C29.8597 0 30.5633 0.318003 31.1204 0.954008C31.7067 1.59001 31.9998 2.35611 31.9998 3.2523C31.9998 4.14849 31.7213 4.91459 31.1643 5.55059C30.6073 6.15769 29.8891 6.46124 29.0096 6.46124Z" fill="#151515"/>
  <path d="M37.6516 32.3062V30.0079C38.5018 30.0079 39.1028 29.8344 39.4546 29.4875C39.8064 29.1117 40.0263 28.5913 40.1142 27.9264C40.2022 27.2615 40.2461 26.5099 40.2461 25.6715V17.5191C40.2461 16.9987 40.2608 16.4494 40.2901 15.8712C40.3194 15.293 40.3634 14.7004 40.422 14.0933C39.953 14.1222 39.4106 14.1511 38.795 14.18C38.2086 14.2089 37.7249 14.2378 37.3438 14.2668V11.4481C38.663 11.4481 39.7478 11.3903 40.5979 11.2746C41.4481 11.1301 42.1077 10.9566 42.5768 10.7543C43.0459 10.5519 43.383 10.364 43.5882 10.1905H45.4352C45.4938 10.5085 45.5231 10.7687 45.5231 10.9711C45.5231 11.1735 45.5378 11.3903 45.5671 11.6216C45.5964 11.8239 45.6404 12.1275 45.699 12.5322C46.2853 12.0407 46.9596 11.6071 47.7218 11.2313C48.5134 10.8265 49.3049 10.5085 50.0965 10.2773C50.888 10.046 51.6209 9.93036 52.2952 9.93036C54.9337 9.93036 56.8246 10.6965 57.9679 12.2286C59.1113 13.7608 59.683 16.2037 59.683 19.5572V26.1051C59.683 26.5677 59.6683 27.1314 59.639 27.7963C59.639 28.4323 59.595 29.0539 59.5071 29.661C60.0054 29.6032 60.5185 29.5742 61.0462 29.5742C61.5739 29.5453 62.0136 29.5309 62.3654 29.5309V32.3062H51.6796V30.0079C52.5297 30.0079 53.1307 29.8344 53.4825 29.4875C53.8636 29.1117 54.0982 28.5913 54.1861 27.9264C54.2741 27.2615 54.318 26.5099 54.318 25.6715L54.2741 19.5138C54.2741 17.4323 53.9516 15.8857 53.3066 14.8739C52.691 13.8331 51.6649 13.3127 50.2284 13.3127C49.3782 13.3417 48.5427 13.544 47.7218 13.9198C46.901 14.2957 46.212 14.7727 45.655 15.3509C45.6843 15.6978 45.699 16.0591 45.699 16.435C45.699 16.8108 45.699 17.1866 45.699 17.5624L45.655 26.1051C45.655 26.5677 45.6404 27.1314 45.611 27.7963C45.611 28.4323 45.5671 29.0539 45.4791 29.661C45.9482 29.6032 46.4466 29.5742 46.9743 29.5742C47.5313 29.5453 47.9857 29.5309 48.3375 29.5309V32.3062H37.6516Z" fill="#151515"/>
  <path d="M68.6507 33C67.8005 33 67.0823 32.6965 66.4959 32.0894C65.9389 31.4534 65.6604 30.7017 65.6604 29.8344C65.6604 28.9382 65.9536 28.1866 66.5399 27.5795C67.1556 26.9435 67.8592 26.6255 68.6507 26.6255C69.5009 26.6255 70.2045 26.9435 70.7615 27.5795C71.3185 28.1866 71.597 28.9382 71.597 29.8344C71.597 30.7017 71.3185 31.4534 70.7615 32.0894C70.2045 32.6965 69.5009 33 68.6507 33Z" fill="#151515"/>
  <path d="M86.21 33C84.2458 33 82.4282 32.5664 80.7571 31.6991C79.1154 30.8318 77.7962 29.5742 76.7994 27.9264C75.832 26.2497 75.3483 24.2405 75.3483 21.8988C75.3483 20.3088 75.6268 18.8055 76.1838 17.389C76.7408 15.9435 77.5177 14.6715 78.5144 13.5729C79.5405 12.4455 80.7571 11.5637 82.1643 10.9277C83.5715 10.2628 85.1253 9.93036 86.8257 9.93036C88.614 9.93036 90.1238 10.205 91.3551 10.7543C92.5863 11.2746 93.5245 11.9829 94.1694 12.8791C94.8144 13.7464 95.1369 14.6715 95.1369 15.6544C95.1369 16.435 94.9024 17.1143 94.4333 17.6925C93.9935 18.2707 93.3486 18.5742 92.4984 18.6032C91.5016 18.6321 90.798 18.3574 90.3876 17.7792C90.0065 17.1721 89.8159 16.6084 89.8159 16.088C89.8159 15.799 89.8599 15.4954 89.9479 15.1774C90.0358 14.8305 90.1824 14.5125 90.3876 14.2234C90.1824 13.703 89.8453 13.3272 89.3762 13.0959C88.9071 12.8357 88.4234 12.6623 87.925 12.5756C87.4267 12.4888 87.0309 12.4599 86.7377 12.4888C85.1253 12.5467 83.7914 13.2694 82.736 14.657C81.6806 16.0447 81.1529 18.0683 81.1529 20.728C81.1529 22.318 81.3728 23.7924 81.8125 25.1511C82.2816 26.4809 82.9852 27.565 83.9233 28.4034C84.8615 29.2129 86.0634 29.6321 87.5293 29.661C88.8192 29.6899 90.0651 29.3863 91.2671 28.7503C92.4691 28.0854 93.4512 27.2326 94.2134 26.1919L95.9724 27.7963C95.005 29.1551 93.9642 30.2103 92.8502 30.9619C91.7362 31.7135 90.6075 32.2339 89.4641 32.523C88.3501 32.841 87.2654 33 86.21 33Z" fill="#151515"/>
  <path d="M109.45 33C107.368 33 105.478 32.5519 103.777 31.6557C102.077 30.7306 100.728 29.4442 99.7316 27.7963C98.7641 26.1196 98.2804 24.1682 98.2804 21.9422C98.2804 19.6005 98.7788 17.5191 99.7755 15.6978C100.772 13.8765 102.106 12.4599 103.777 11.4481C105.478 10.4363 107.339 9.93036 109.362 9.93036C111.443 9.93036 113.32 10.3929 114.991 11.318C116.662 12.2431 117.981 13.5296 118.949 15.1774C119.945 16.8252 120.444 18.7766 120.444 21.0315C120.444 23.4021 119.96 25.498 118.992 27.3193C118.054 29.1117 116.75 30.5138 115.079 31.5256C113.437 32.5085 111.561 33 109.45 33ZM109.67 30.3548C110.989 30.3548 112 29.9501 112.704 29.1406C113.408 28.3311 113.891 27.3049 114.155 26.0618C114.448 24.7898 114.595 23.4888 114.595 22.159C114.595 21.0315 114.492 19.8896 114.287 18.7332C114.111 17.5769 113.818 16.5361 113.408 15.611C112.997 14.657 112.455 13.9054 111.781 13.3561C111.106 12.7779 110.285 12.4888 109.318 12.4888C108.028 12.5177 107.002 12.9369 106.24 13.7464C105.478 14.5558 104.921 15.5821 104.569 16.8252C104.246 18.0683 104.085 19.3837 104.085 20.7714C104.085 22.3325 104.276 23.8647 104.657 25.3679C105.038 26.8423 105.639 28.0565 106.46 29.0105C107.281 29.9356 108.351 30.3837 109.67 30.3548Z" fill="#151515"/>
  <path d="M123.797 32.3062V30.0079C124.648 30.0079 125.249 29.8344 125.6 29.4875C125.952 29.1117 126.172 28.5913 126.26 27.9264C126.348 27.2615 126.392 26.5099 126.392 25.6715V17.5191C126.392 16.9987 126.407 16.4494 126.436 15.8712C126.465 15.293 126.509 14.7004 126.568 14.0933C126.069 14.1222 125.527 14.1511 124.941 14.18C124.354 14.2089 123.871 14.2378 123.49 14.2668V11.4481C124.809 11.4481 125.894 11.3903 126.744 11.2746C127.594 11.1301 128.254 10.9566 128.723 10.7543C129.192 10.5519 129.529 10.364 129.734 10.1905H131.581C131.64 10.4796 131.669 10.841 131.669 11.2746C131.698 11.6794 131.728 12.0552 131.757 12.4021C132.724 11.6505 133.78 11.0578 134.923 10.6242C136.066 10.1616 137.18 9.93036 138.265 9.93036C139.643 9.93036 140.786 10.1761 141.695 10.6675C142.633 11.159 143.366 11.8673 143.894 12.7924C144.92 11.954 146.078 11.2746 147.368 10.7543C148.658 10.205 149.904 9.93036 151.106 9.93036C153.539 9.93036 155.357 10.6386 156.559 12.0552C157.79 13.4428 158.391 15.8134 158.362 19.1669V26.1051C158.362 26.5677 158.347 27.1314 158.318 27.7963C158.288 28.4323 158.244 29.0539 158.186 29.661C158.655 29.6032 159.153 29.5742 159.681 29.5742C160.208 29.5453 160.648 29.5309 161 29.5309V32.3062H150.578V30.0079C151.34 30.0079 151.883 29.8344 152.205 29.4875C152.528 29.1117 152.718 28.5913 152.777 27.9264C152.865 27.2615 152.909 26.5099 152.909 25.6715V19.2102C152.909 17.1288 152.572 15.6399 151.897 14.7438C151.223 13.8476 150.27 13.3995 149.039 13.3995C148.218 13.3706 147.426 13.5296 146.664 13.8765C145.931 14.1945 145.286 14.5848 144.729 15.0473C144.876 15.5966 144.979 16.1892 145.037 16.8252C145.096 17.4612 145.125 18.1406 145.125 18.8633C145.125 20.0775 145.125 21.2917 145.125 22.5059C145.125 23.6912 145.11 24.8909 145.081 26.1051C145.081 26.5677 145.066 27.1314 145.037 27.7963C145.037 28.4323 144.993 29.0539 144.905 29.661C145.374 29.6032 145.873 29.5742 146.4 29.5742C146.928 29.5453 147.382 29.5309 147.764 29.5309V32.3062H137.21V30.0079C138.001 30.0079 138.558 29.8344 138.881 29.4875C139.233 29.1117 139.452 28.5913 139.54 27.9264C139.628 27.2615 139.672 26.5099 139.672 25.6715V19.1235C139.672 17.0421 139.35 15.5677 138.705 14.7004C138.089 13.8042 137.166 13.3417 135.934 13.3127C135.143 13.3127 134.381 13.4862 133.648 13.8331C132.944 14.18 132.328 14.5992 131.801 15.0907C131.801 15.4665 131.801 15.8423 131.801 16.2181C131.801 16.565 131.801 16.9264 131.801 17.3022V26.1051C131.801 26.5677 131.786 27.1314 131.757 27.7963C131.757 28.4323 131.713 29.0539 131.625 29.661C132.094 29.6032 132.563 29.5742 133.032 29.5742C133.53 29.5453 133.956 29.5309 134.307 29.5309V32.3062H123.797Z" fill="#151515"/>
</svg>