<svg xmlns="http://www.w3.org/2000/svg" width="76" height="40" viewBox="0 0 76 40" fill="none">
  <path
    d="M0 40V37.047C1.00032 37.0112 1.76843 36.8501 2.30431 36.5638C2.8402 36.2416 3.21532 35.7047 3.42967 34.953C3.64403 34.1655 3.75121 33.0917 3.75121 31.7315V10.3087C3.75121 9.41387 3.76907 8.55481 3.80479 7.73155C3.87625 6.90828 3.92983 6.26398 3.96556 5.79866C3.35822 5.83445 2.66157 5.87025 1.8756 5.90604C1.08964 5.90604 0.464435 5.92394 0 5.95973V2.41611H26.1513L26.4192 12.5101H23.4718C23.4718 10.4698 23.1324 8.94855 22.4536 7.94631C21.7749 6.90828 20.9174 6.21029 19.8814 5.85235C18.8453 5.49441 17.7914 5.33333 16.7197 5.36913L14.0938 5.42282C13.1649 5.45861 12.4326 5.63759 11.8967 5.95973C11.3965 6.28188 11.0393 6.83669 10.8249 7.62416C10.6106 8.37584 10.5034 9.41387 10.5034 10.7383V20.0805H17.2555L16.9876 15.4631H20.5245V27.9195H17.6307C17.6307 26.3803 17.3984 25.2707 16.934 24.5906C16.4696 23.9105 15.8087 23.4989 14.9512 23.3557C14.1295 23.1767 13.1471 23.123 12.0039 23.1946L10.5034 23.2483V32C10.5034 32.9664 10.4855 33.8613 10.4498 34.6846C10.4141 35.5078 10.3605 36.1521 10.289 36.6174C10.7535 36.5817 11.2893 36.5638 11.8967 36.5638C12.5397 36.528 13.1649 36.5101 13.7723 36.5101C14.4153 36.4743 14.9155 36.4564 15.2728 36.4564V40H0Z"
    fill="#151515" />
  <path
    d="M29.1891 37.1544C30.2251 37.1544 30.9575 36.9396 31.3862 36.5101C31.8149 36.0447 32.0829 35.4004 32.19 34.5772C32.2972 33.7539 32.3508 32.8233 32.3508 31.7852V21.745C32.3508 21.1365 32.3687 20.4743 32.4044 19.7584C32.4401 19.0067 32.4937 18.2371 32.5652 17.4497C31.9578 17.4855 31.2969 17.5213 30.5824 17.557C29.8679 17.5928 29.2784 17.6286 28.8139 17.6644V14.1745C30.4216 14.1745 31.7435 14.1029 32.7795 13.9597C33.8513 13.7808 34.673 13.566 35.2446 13.3154C35.8519 13.0649 36.2806 12.8322 36.5307 12.6174H38.9422V32.3221C38.9422 32.8949 38.9243 33.5928 38.8886 34.4161C38.8886 35.2036 38.835 35.9732 38.7278 36.7248C39.2995 36.6532 39.9068 36.6174 40.5499 36.6174C41.2286 36.5817 41.7824 36.5638 42.2111 36.5638V40H29.1891V37.1544ZM35.3518 8C34.3157 8 33.4404 7.62416 32.7259 6.87248C32.0114 6.08501 31.6541 5.13647 31.6541 4.02685C31.6541 2.91723 32.0114 1.96868 32.7259 1.18121C33.4762 0.393736 34.3514 0 35.3518 0C36.3878 0 37.2452 0.393736 37.924 1.18121C38.6385 1.96868 38.9958 2.91723 38.9958 4.02685C38.9958 5.13647 38.6564 6.08501 37.9776 6.87248C37.2988 7.62416 36.4235 8 35.3518 8Z"
    fill="#151515" />
  <path
    d="M45.8832 40V37.1544C46.9192 37.1544 47.6516 36.9396 48.0803 36.5101C48.509 36.0447 48.777 35.4004 48.8841 34.5772C48.9913 33.7539 49.0449 32.8233 49.0449 31.7852V21.6913C49.0449 21.047 49.0628 20.3669 49.0985 19.651C49.1342 18.9351 49.1878 18.2013 49.2593 17.4497C48.6877 17.4855 48.0267 17.5213 47.2765 17.557C46.562 17.5928 45.9725 17.6286 45.5081 17.6644V14.1745C47.1157 14.1745 48.4376 14.1029 49.4736 13.9597C50.5097 13.7808 51.3135 13.566 51.8851 13.3154C52.4567 13.0649 52.8676 12.8322 53.1177 12.6174H55.3684C55.4398 13.0112 55.4756 13.3333 55.4756 13.5839C55.4756 13.8345 55.4934 14.1029 55.5291 14.3893C55.5649 14.6398 55.6185 15.0157 55.6899 15.5168C56.4044 14.9083 57.2261 14.3714 58.155 13.906C59.1196 13.4049 60.0842 13.0112 61.0488 12.7248C62.0134 12.4385 62.9065 12.2953 63.7282 12.2953C66.9435 12.2953 69.2478 13.2438 70.6411 15.1409C72.0344 17.038 72.7311 20.0626 72.7311 24.2148V32.3221C72.7311 32.8949 72.7132 33.5928 72.6775 34.4161C72.6775 35.2036 72.6239 35.9732 72.5167 36.7248C73.1241 36.6532 73.7493 36.6174 74.3923 36.6174C75.0354 36.5817 75.5713 36.5638 76 36.5638V40H62.978V37.1544C64.014 37.1544 64.7464 36.9396 65.1751 36.5101C65.6395 36.0447 65.9253 35.4004 66.0325 34.5772C66.1397 33.7539 66.1933 32.8233 66.1933 31.7852L66.1397 24.1611C66.1397 21.5839 65.7467 19.6689 64.9607 18.4161C64.2105 17.1275 62.9601 16.4832 61.2095 16.4832C60.1735 16.519 59.1553 16.7696 58.155 17.2349C57.1547 17.7002 56.3151 18.2908 55.6363 19.0067C55.672 19.4362 55.6899 19.8837 55.6899 20.349C55.6899 20.8143 55.6899 21.2796 55.6899 21.745L55.6363 32.3221C55.6363 32.8949 55.6185 33.5928 55.5827 34.4161C55.5827 35.2036 55.5291 35.9732 55.422 36.7248C55.9936 36.6532 56.6009 36.6174 57.244 36.6174C57.9228 36.5817 58.4765 36.5638 58.9052 36.5638V40H45.8832Z"
    fill="#151515" />
</svg>