<svg xmlns="http://www.w3.org/2000/svg" width="719" height="507" viewBox="0 0 719 507" fill="none">
  <path
    d="M262.512 0H343.613V76.6891H262.512V0ZM0 139.887H60.4701V109.353C60.4701 86.1569 63.3158 67.458 69.0071 53.2563C74.6984 38.5812 82.2868 27.4566 91.7723 19.8823C101.258 11.8347 111.929 6.62748 123.786 4.26053C136.117 1.42018 148.923 0 162.202 0C188.287 0 207.258 1.65687 219.115 4.97061V68.1681C213.898 66.7479 208.207 65.8011 202.041 65.3277C196.35 64.381 189.473 63.9076 181.41 63.9076C170.502 63.9076 161.017 66.5112 152.954 71.7185C145.365 76.9258 141.571 87.1036 141.571 102.252V139.887H210.578V200.244H141.571V507H60.4701V200.244H0V139.887ZM262.512 139.887H343.613V507H262.512V139.887Z"
    fill="#151515" />
  <path
    d="M396.018 139.887H472.851V193.853L474.274 195.273C486.605 174.917 502.73 159.059 522.65 147.697C542.569 135.863 564.623 129.945 588.811 129.945C629.125 129.945 660.901 140.36 684.141 161.189C707.38 182.018 719 213.262 719 254.92V507H637.899V276.223C636.95 247.346 630.785 226.517 619.402 213.735C608.02 200.48 590.234 193.853 566.046 193.853C552.292 193.853 539.961 196.457 529.053 201.664C518.144 206.398 508.896 213.262 501.307 222.256C493.719 230.777 487.791 240.955 483.522 252.79C479.254 264.625 477.119 277.169 477.119 290.424V507H396.018V139.887Z"
    fill="#151515" />
</svg>