<svg xmlns="http://www.w3.org/2000/svg" width="488" height="185" viewBox="0 0 488 185" fill="none">
  <path d="M0.400024 184.8V45.4H26.8L27.2 75.4L30.8 75.8C32 68.3333 34.1334 62.1333 37.2 57.2C40.2667 52.2667 44.2 48.6 49 46.2C53.9334 43.8 59.5334 42.6 65.8 42.6C75.1334 42.6 83.1334 44.8667 89.8 49.4C96.6 53.9333 101.8 60.4 105.4 68.8C109 77.2 110.8 87.2667 110.8 99C110.8 109.4 109.2 118.733 106 127C102.933 135.267 98.2 141.8 91.8 146.6C85.5334 151.4 77.5334 153.8 67.8 153.8C61.2667 153.8 55.7334 152.667 51.2 150.4C46.6667 148 42.8 144.533 39.6 140C36.5334 135.467 33.9334 129.8 31.8 123H28C28.8 126.6 29.5334 130.267 30.2 134C30.8667 137.733 31.4 141.333 31.8 144.8C32.3334 148.267 32.6 151.6 32.6 154.8V184.8H0.400024ZM56 128.4C60.4 128.4 64.1334 127.2 67.2 124.8C70.4 122.4 72.8667 119 74.6 114.6C76.3334 110.2 77.2 105.067 77.2 99.2C77.2 92.9333 76.2667 87.6 74.4 83.2C72.6667 78.6667 70.1334 75.2 66.8 72.8C63.4667 70.2667 59.6 69 55.2 69C51.0667 69 47.5334 69.9333 44.6 71.8C41.8 73.5333 39.4667 75.8667 37.6 78.8C35.8667 81.6 34.6 84.6 33.8 87.8C33 91 32.6 94 32.6 96.8V101.2C32.6 103.733 32.9334 106.267 33.6 108.8C34.2667 111.333 35.2667 113.8 36.6 116.2C37.9334 118.467 39.5334 120.533 41.4 122.4C43.2667 124.267 45.4 125.733 47.8 126.8C50.3334 127.867 53.0667 128.4 56 128.4Z" fill="black"/>
  <path d="M120.088 151V45.4H152.288V151H120.088ZM136.288 30.6C130.154 30.6 125.421 29.3333 122.088 26.8C118.888 24.1333 117.288 20.4 117.288 15.6C117.288 10.5333 118.888 6.73334 122.088 4.20001C125.421 1.53334 130.154 0.200012 136.288 0.200012C142.554 0.200012 147.288 1.53334 150.488 4.20001C153.821 6.73334 155.488 10.4667 155.488 15.4C155.488 20.3333 153.821 24.1333 150.488 26.8C147.288 29.3333 142.554 30.6 136.288 30.6Z" fill="black"/>
  <path d="M167.314 184.8V45.4H193.714L194.114 75.4L197.714 75.8C198.914 68.3333 201.047 62.1333 204.114 57.2C207.181 52.2667 211.114 48.6 215.914 46.2C220.847 43.8 226.447 42.6 232.714 42.6C242.047 42.6 250.047 44.8667 256.714 49.4C263.514 53.9333 268.714 60.4 272.314 68.8C275.914 77.2 277.714 87.2667 277.714 99C277.714 109.4 276.114 118.733 272.914 127C269.847 135.267 265.114 141.8 258.714 146.6C252.447 151.4 244.447 153.8 234.714 153.8C228.181 153.8 222.647 152.667 218.114 150.4C213.581 148 209.714 144.533 206.514 140C203.447 135.467 200.847 129.8 198.714 123H194.914C195.714 126.6 196.447 130.267 197.114 134C197.781 137.733 198.314 141.333 198.714 144.8C199.247 148.267 199.514 151.6 199.514 154.8V184.8H167.314ZM222.914 128.4C227.314 128.4 231.047 127.2 234.114 124.8C237.314 122.4 239.781 119 241.514 114.6C243.247 110.2 244.114 105.067 244.114 99.2C244.114 92.9333 243.181 87.6 241.314 83.2C239.581 78.6667 237.047 75.2 233.714 72.8C230.381 70.2667 226.514 69 222.114 69C217.981 69 214.447 69.9333 211.514 71.8C208.714 73.5333 206.381 75.8667 204.514 78.8C202.781 81.6 201.514 84.6 200.714 87.8C199.914 91 199.514 94 199.514 96.8V101.2C199.514 103.733 199.847 106.267 200.514 108.8C201.181 111.333 202.181 113.8 203.514 116.2C204.847 118.467 206.447 120.533 208.314 122.4C210.181 124.267 212.314 125.733 214.714 126.8C217.247 127.867 219.981 128.4 222.914 128.4Z" fill="black"/>
  <path d="M337.592 153.8C328.792 153.8 320.926 152.667 313.992 150.4C307.059 148 301.126 144.533 296.192 140C291.392 135.467 287.726 129.867 285.192 123.2C282.659 116.533 281.392 108.867 281.392 100.2C281.392 91.8 282.592 84.0667 284.992 77C287.526 69.9333 291.059 63.8667 295.592 58.8C300.259 53.6 305.926 49.6 312.592 46.8C319.392 44 326.992 42.6 335.392 42.6C343.926 42.6 351.392 44 357.792 46.8C364.326 49.4667 369.659 53.4667 373.792 58.8C378.059 64.1333 381.192 70.6667 383.192 78.4C385.192 86 385.859 94.7333 385.192 104.6L302.592 105.2V88.4L366.792 87.8L355.392 95.6C356.326 88.9333 355.926 83.5333 354.192 79.4C352.459 75.1333 349.926 72.0667 346.592 70.2C343.259 68.2 339.659 67.2 335.792 67.2C331.126 67.2 326.992 68.4667 323.392 71C319.926 73.5333 317.192 77.2 315.192 82C313.192 86.8 312.192 92.6667 312.192 99.6C312.192 110.533 314.526 118.467 319.192 123.4C323.992 128.333 330.059 130.8 337.392 130.8C340.992 130.8 343.992 130.333 346.392 129.4C348.792 128.333 350.726 127.067 352.192 125.6C353.792 124 354.992 122.267 355.792 120.4C356.726 118.533 357.459 116.733 357.992 115L385.992 121C384.926 125.933 383.192 130.4 380.792 134.4C378.526 138.4 375.392 141.867 371.392 144.8C367.526 147.733 362.792 149.933 357.192 151.4C351.726 153 345.192 153.8 337.592 153.8Z" fill="black"/>
  <path d="M438.952 153.8C431.885 153.8 425.485 153.133 419.752 151.8C414.018 150.6 409.018 148.8 404.752 146.4C400.485 144 396.952 141.133 394.152 137.8C391.485 134.333 389.618 130.533 388.552 126.4L412.552 115.8C413.485 118.067 415.085 120.4 417.352 122.8C419.752 125.067 422.885 126.933 426.752 128.4C430.752 129.867 435.552 130.6 441.152 130.6C446.485 130.6 450.618 129.867 453.552 128.4C456.618 126.8 458.152 124.533 458.152 121.6C458.152 119.467 457.285 117.8 455.552 116.6C453.952 115.267 451.485 114.133 448.152 113.2C444.818 112.133 440.685 111.133 435.752 110.2C430.685 109.133 425.552 107.933 420.352 106.6C415.152 105.133 410.285 103.2 405.752 100.8C401.218 98.2667 397.552 95 394.752 91C392.085 86.8667 390.752 81.6667 390.752 75.4C390.752 68.8667 392.485 63.2 395.952 58.4C399.418 53.4667 404.552 49.6 411.352 46.8C418.285 44 426.685 42.6 436.552 42.6C445.352 42.6 453.085 43.7333 459.752 46C466.418 48.2667 471.952 51.5333 476.352 55.8C480.885 59.9333 484.018 64.9333 485.752 70.8L459.952 80C459.285 77.0667 457.885 74.5333 455.752 72.4C453.752 70.2667 451.152 68.6667 447.952 67.6C444.885 66.4 441.218 65.8 436.952 65.8C431.752 65.8 427.685 66.6 424.752 68.2C421.952 69.8 420.552 71.9333 420.552 74.6C420.552 76.7333 421.485 78.5333 423.352 80C425.352 81.3333 428.152 82.4667 431.752 83.4C435.352 84.3333 439.618 85.3333 444.552 86.4C449.752 87.4667 454.885 88.7333 459.952 90.2C465.152 91.5333 469.818 93.4 473.952 95.8C478.218 98.0667 481.552 101.133 483.952 105C486.485 108.733 487.752 113.6 487.752 119.6C487.752 126.667 485.885 132.8 482.152 138C478.418 143.067 472.885 147 465.552 149.8C458.352 152.467 449.485 153.8 438.952 153.8Z" fill="black"/>
</svg>
