<svg width="1552" height="266" viewBox="0 0 1552 266" fill="none" xmlns="http://www.w3.org/2000/svg">
<g clip-path="url(#clip0_9553_2289)">
<path d="M149 0C174.74 0 200.48 0 227 0C224.994 21.0688 221.936 36.2147 212 54C211.456 54.9861 210.912 55.9723 210.352 56.9883C196.516 80.3066 173.359 95.0662 148 103C146.68 103.33 145.36 103.66 144 104C171.39 104.33 198.78 104.66 227 105C227 130.41 227 155.82 227 182C177.5 182 128 182 77.0002 182C77.0002 209.72 77.0002 237.44 77.0002 266C51.5902 266 26.1802 266 0.000162482 266C-0.0823375 254.986 -0.164838 243.973 -0.249838 232.625C-0.286254 229.187 -0.32267 225.748 -0.360189 222.206C-0.542621 192.916 -0.542621 192.916 4.00016 179C4.27747 178.104 4.55478 177.209 4.84049 176.286C5.53682 174.22 6.31168 172.245 7.18766 170.25C7.48318 169.559 7.7787 168.869 8.08317 168.157C19.4444 142.58 40.4646 123.259 66.0627 112.387C71.9511 110.313 77.9974 108.715 84.0002 107C56.2802 106.67 28.5602 106.34 0.000162482 106C0.000162482 80.59 0.000162482 55.18 0.000162482 29C49.1702 29 98.3402 29 149 29C149 19.43 149 9.86 149 0Z" fill="black"/>
<path d="M1411.24 93.2227C1417.57 97.3015 1422.71 102.691 1428 108C1428.5 107.443 1429 106.886 1429.51 106.313C1438.28 96.9973 1448.66 90.4728 1461 87.0001C1461.78 86.7758 1462.55 86.5515 1463.36 86.3204C1483.24 81.7049 1505.15 84.491 1522.69 94.8672C1538.01 104.735 1545.83 119.295 1550.2 136.582C1552.75 149.207 1552.13 162.367 1552.1 175.176C1552.1 177.198 1552.09 179.219 1552.09 181.241C1552.09 186.52 1552.08 191.798 1552.07 197.077C1552.06 203.433 1552.05 209.789 1552.05 216.145C1552.04 225.764 1552.02 235.382 1552 245C1535.5 245 1519 245 1502 245C1501.95 238.954 1501.9 232.909 1501.85 226.68C1501.82 222.824 1501.78 218.969 1501.74 215.113C1501.68 209.009 1501.62 202.904 1501.58 196.799C1501.54 191.871 1501.49 186.944 1501.44 182.016C1501.42 180.146 1501.41 178.277 1501.4 176.407C1501.71 152.169 1501.71 152.169 1491.26 130.992C1484.52 124.808 1476.76 124.383 1467.99 124.625C1460.93 125.092 1455.48 128.113 1450.62 133.188C1440.6 146.357 1441.69 164.159 1441.59 179.863C1441.57 181.75 1441.55 183.638 1441.53 185.525C1441.48 190.448 1441.44 195.372 1441.4 200.295C1441.35 206.226 1441.29 212.157 1441.23 218.088C1441.14 227.058 1441.07 236.029 1441 245C1424.5 245 1408 245 1391 245C1390.96 238.258 1390.93 231.516 1390.89 224.57C1390.86 220.286 1390.83 216.003 1390.79 211.719C1390.74 204.927 1390.69 198.135 1390.65 191.343C1390.63 185.864 1390.59 180.385 1390.54 174.906C1390.52 172.821 1390.51 170.736 1390.5 168.651C1390.49 165.719 1390.46 162.788 1390.43 159.856C1390.43 159.004 1390.44 158.151 1390.44 157.273C1390.28 146.859 1387.2 137.066 1379.62 129.688C1371.38 124.389 1363.56 124.009 1354 125C1346.06 127.287 1340.91 132 1336.82 139.027C1330.83 151.122 1331.67 165.058 1331.59 178.203C1331.57 180.137 1331.55 182.07 1331.53 184.003C1331.48 189.054 1331.44 194.104 1331.4 199.154C1331.35 205.234 1331.29 211.314 1331.23 217.394C1331.14 226.596 1331.07 235.798 1331 245C1314.5 245 1298 245 1281 245C1281 193.19 1281 141.38 1281 88.0001C1297.5 88.0001 1314 88.0001 1331 88.0001C1331.33 94.6001 1331.66 101.2 1332 108C1332.99 106.824 1333.98 105.649 1335 104.438C1354.96 81.8918 1385.25 79.307 1411.24 93.2227Z" fill="black"/>
<path d="M328 21C390.04 21 452.08 21 516 21C516 35.19 516 49.38 516 64C471.12 64 426.24 64 380 64C380 84.13 380 104.26 380 125C422.57 125 465.14 125 509 125C509 139.19 509 153.38 509 168C466.43 168 423.86 168 380 168C380 193.41 380 218.82 380 245C362.84 245 345.68 245 328 245C328 171.08 328 97.16 328 21Z" fill="black"/>
<path d="M1232.38 98C1233.93 99.3174 1235.47 100.65 1237 102C1237.61 102.518 1238.22 103.036 1238.86 103.57C1253.4 116.815 1260.95 137.846 1262.13 157.051C1263.02 181.063 1257.66 202.503 1241.81 221.125C1223.32 240.833 1198.32 248.031 1172.07 248.965C1145.59 249.451 1119.58 242.456 1100 224C1082.73 206.49 1077.69 184.806 1077.69 160.882C1077.93 139.147 1085.1 119.588 1100.27 103.609C1133.82 71.7354 1196.01 69.6435 1232.38 98ZM1138.31 130.688C1128.1 142.906 1126.98 157.773 1128 173C1129.52 185.051 1135.25 195.689 1144.68 203.383C1155.4 210.867 1167.31 211.948 1180 210C1189.69 207.697 1197.53 202.868 1203.31 194.688C1211.92 180.565 1213.46 165.222 1210.47 149.145C1207.58 138.315 1201.88 127.989 1192.03 122.277C1173.21 112.605 1153.03 115.207 1138.31 130.688Z" fill="black"/>
<path d="M772.973 99.1679C787.661 111.685 793.963 128.478 795.79 147.286C796.114 151.479 796.131 155.652 796.114 159.856C796.114 160.784 796.114 161.712 796.114 162.668C796.113 165.698 796.106 168.728 796.098 171.758C796.096 173.873 796.094 175.989 796.093 178.105C796.09 183.645 796.08 189.185 796.069 194.725C796.057 201.387 796.052 208.05 796.046 214.712C796.037 224.808 796.017 234.904 796 245C779.5 245 763 245 746 245C745.944 235.823 745.944 235.823 745.887 226.461C745.856 222.56 745.825 218.659 745.791 214.758C745.737 208.581 745.686 202.404 745.654 196.227C745.627 191.24 745.587 186.254 745.537 181.268C745.52 179.376 745.509 177.484 745.502 175.592C745.443 159.384 745.323 144.323 733.188 132.187C721.303 124.031 707.251 123.108 693.297 125.684C682.975 128.873 676.054 134.445 671 144C667.585 151.963 666.859 160.018 666.795 168.597C666.785 169.427 666.775 170.258 666.765 171.113C666.733 173.834 666.708 176.556 666.684 179.277C666.663 181.173 666.642 183.069 666.621 184.964C666.566 189.937 666.516 194.91 666.468 199.883C666.409 205.859 666.342 211.835 666.277 217.81C666.18 226.873 666.091 235.937 666 245C649.5 245 633 245 616 245C616 193.19 616 141.38 616 88C632.17 88 648.34 88 665 88C665.33 94.6 665.66 101.2 666 108C667.361 106.515 668.722 105.03 670.125 103.5C695.997 77.7742 744.249 78.2196 772.973 99.1679Z" fill="black"/>
<path d="M1031.36 97.6795C1034.38 100.326 1037.2 103.123 1040 106C1041.03 107.054 1041.03 107.054 1042.09 108.129C1052.21 119.072 1060 134.904 1060 150C1043.17 150 1026.34 150 1009 150C1006.52 143.565 1006.52 143.565 1004 137C997.595 127.113 989.667 120.596 978 118C964.594 117.053 952.915 117.8 942.062 126.687C932.035 136.586 927.952 149.745 927.562 163.625C928.008 175.246 930.689 185.213 937 195C937.598 195.928 938.196 196.856 938.812 197.812C947.061 206.061 957.124 209.447 968.562 210.25C979.18 210.027 988.89 206.922 997 200C1003.4 193.063 1005.66 187.175 1009 178C1025.83 178 1042.66 178 1060 178C1057.31 199.549 1047.13 217.525 1030 231C1006.03 248.209 976.584 250.736 947.937 247.531C926.159 243.901 906.273 233.22 892.359 215.91C878.103 195.877 873.895 171.076 877.687 146.933C880.394 132.687 885.87 120.338 895 109C895.704 108.05 895.704 108.05 896.422 107.082C909.145 90.7289 930.929 83.0866 950.687 79.6873C977.721 76.4594 1009.62 79.6421 1031.36 97.6795Z" fill="black"/>
<path d="M540 88C556.5 88 573 88 590 88C590 139.81 590 191.62 590 245C573.5 245 557 245 540 245C540 193.19 540 141.38 540 88Z" fill="black"/>
<path d="M583.313 23.8127C587.173 26.9547 589.43 30.2903 591 35.0002C591.613 42.9082 592.145 50.5314 587 57.0002C580.623 63.7401 573.997 65.89 564.813 66.2502C556.174 66.0902 548.826 64.0227 542.594 57.8674C537.725 52.1627 537.383 46.6054 537.602 39.2893C538.369 32.9535 540.343 28.1038 545.418 24.0861C557.386 16.6262 571.066 17.1115 583.313 23.8127Z" fill="black"/>
<path d="M860 204C866.031 209.304 868.568 214.337 869.313 222.375C868.712 229.337 866.729 235.369 861.832 240.492C854.855 246.234 846.556 246.771 837.848 246.375C830.383 245.647 825.199 243.663 820 238.187C815.233 232.108 814.169 225.548 815 218C816.614 210.975 820.147 207.377 825.625 202.812C836.015 197.232 850.053 197.481 860 204Z" fill="black"/>
</g>
<defs>
<clipPath id="clip0_9553_2289">
<rect width="1552" height="266" fill="white"/>
</clipPath>
</defs>
</svg>