<svg xmlns="http://www.w3.org/2000/svg" version="1.1" xmlns:xlink="http://www.w3.org/1999/xlink" width="1000" height="1000"><g clip-path="url(#SvgjsClipPath1047)"><rect width="1000" height="1000" fill="#ffffff"></rect><g transform="matrix(1.953125,0,0,1.953125,0,0)"><svg xmlns="http://www.w3.org/2000/svg" version="1.1" xmlns:xlink="http://www.w3.org/1999/xlink" width="512" height="512"><svg width="512" height="512" viewBox="0 0 512 512" fill="none" xmlns="http://www.w3.org/2000/svg">
<rect width="512" height="512" fill="#F2FF46"></rect>
<g clip-path="url(#clip0_9549_133)">
<path d="M290.687 124C316.2 124 341.713 124 368 124C366.011 144.91 362.98 159.942 353.132 177.594C352.593 178.573 352.054 179.551 351.498 180.56C337.784 203.703 314.831 218.351 289.696 226.226C288.387 226.553 287.079 226.881 285.731 227.218C312.88 227.546 340.028 227.873 368 228.211C368 253.429 368 278.648 368 304.632C318.936 304.632 269.872 304.632 219.321 304.632C219.321 332.143 219.321 359.655 219.321 388C194.135 388 168.949 388 143 388C142.918 377.069 142.836 366.138 142.752 354.876C142.716 351.463 142.68 348.051 142.643 344.535C143.495 314.556 142.462 315.466 146.965 301.654C147.239 300.765 147.514 299.876 147.797 298.96C148.488 296.91 149.256 294.95 150.124 292.97C150.417 292.285 150.71 291.599 151.012 290.893C162.273 265.508 183.108 246.333 208.48 235.542C214.317 233.483 220.31 231.898 226.26 230.195C198.784 229.868 171.308 229.54 143 229.203C143 203.984 143 178.765 143 152.782C191.737 152.782 240.473 152.782 290.687 152.782C290.687 143.284 290.687 133.786 290.687 124Z" fill="#151515"></path>
</g>
<defs>
<clipPath id="clip0_9549_133">
<rect width="225" height="264" fill="white" transform="translate(143 124)"></rect>
</clipPath>
<clipPath id="SvgjsClipPath1047"><rect width="1000" height="1000" x="0" y="0" rx="200" ry="200"></rect></clipPath></defs>
</svg></svg></g></g></svg>